# xmcd
#
# Track frame offsets: 
#        150
#        16628
#        34310
#        59567
#        77101
#        90618
#        109820
#        132469
#        148955
#
# Disc length: 2413 seconds
#
# Revision: 0
# Processed by: cddbd v1.5.2PL0 Copyright (c) Steve Scherf et al.
# Submitted via: ExactAudioCopy v1.0b3
#
DISCID=7c096b09
DTITLE=Matt Taylor Band - Always Land on Your Feet
DYEAR=1983
DGENRE=Blues
TTITLE0=Always Land on Your Feet
TTITLE1=Runaround
TTITLE2=Feelings
TTITLE3=Talk to Me
TTITLE4=The Visit
TTITLE5=21st Century Blues
TTITLE6=Kitchen Magician
TTITLE7=Bompa 2
TTITLE8=Bo Diddley on 33
EXTD=
EXTT0=
EXTT1=
EXTT2=
EXTT3=
EXTT4=
EXTT5=
EXTT6=
EXTT7=
EXTT8=
PLAYORDER=
